<svg id="Camada_1" data-name="Camada 1" xmlns="http://www.w3.org/2000/svg" viewBox="0 0 929.14 305.95"><defs><style>.cls-1{fill:#ffcc71;}.cls-2{fill:#4aa569;}.cls-3{fill:#1c1515;}.cls-4{fill:#d31a41;}</style></defs><polygon class="cls-1" points="132.47 265.01 7.3 130.3 7.3 74.62 132.47 209.32 132.47 265.01"/><polygon class="cls-2" points="132.47 209.32 7.3 74.62 7.3 18.94 132.47 153.64 132.47 209.32"/><path class="cls-3" d="M132.47.18a7.3,7.3,0,0,0-7.3,7.31V135.06L14.6,16.07V7.49A7.3,7.3,0,1,0,0,7.49v269a7.3,7.3,0,1,0,14.6,0V148.89l110.57,119v8.58a7.3,7.3,0,0,0,14.6,0V7.49A7.3,7.3,0,0,0,132.47.18Zm-7.3,156.33v34.23L14.6,71.75V37.52ZM14.6,127.43V93.2l110.57,119v34.23Z"/><rect class="cls-2" x="193.27" y="7.49" width="62.58" height="268.97"/><rect class="cls-4" x="255.85" y="7.49" width="62.58" height="268.97"/><path class="cls-3" d="M318.44,14.79H193.27a7.31,7.31,0,0,1,0-14.61H318.44a7.31,7.31,0,0,1,0,14.61Z"/><path class="cls-3" d="M318.44,283.76H193.27a7.3,7.3,0,1,1,0-14.6H318.44a7.3,7.3,0,1,1,0,14.6Z"/><path class="cls-3" d="M318.44,214H193.27a7.3,7.3,0,0,1,0-14.6H318.44a7.3,7.3,0,1,1,0,14.6Z"/><path class="cls-3" d="M318.44,82H193.27a7.3,7.3,0,0,1,0-14.6H318.44a7.3,7.3,0,1,1,0,14.6Z"/><path class="cls-3" d="M318.44,148H193.27a7.31,7.31,0,0,1,0-14.61H318.44a7.31,7.31,0,0,1,0,14.61Z"/><path class="cls-1" d="M509.85,269.71l3.79,1.36-5.44-24-8.82-34.8-6-21-3,5.54-15.87,11.4-25.7,5.59-8.54,6.34c-33,2.73-53.92,32.06-65.39,63.25l140.69-.1C513.87,278.64,512.08,274.22,509.85,269.71Z"/><path class="cls-2" d="M493.58,191.88,448.11,20.42a2.57,2.57,0,0,0-5,0L375.22,275.87c12-32.8,34.32-63.58,70.17-63.58a55.61,55.61,0,0,1,11.31,1.17C471.61,210.28,485.82,204.12,493.58,191.88Z"/><path class="cls-3" d="M369.85,281l-.25-.28a7,7,0,0,1-1.37-7h0a.14.14,0,0,0,0-.06L436.09,18.54a9.87,9.87,0,0,1,19.08,0l43.95,165.75c0,.12.07.24.09.36l23.64,89.12a7.62,7.62,0,0,1-4.87,9.14h0a7.45,7.45,0,0,1-9.24-4.45,7.26,7.26,0,0,1-.43-1.8,12,12,0,0,0-.28-1.78L489.24,204c-9.56,8.53-25.17,15.59-43.85,15.59-36.23,0-55.12,36.49-63.2,58.48h0a7,7,0,0,1-4.9,4.95l-.41.11-.18,0A7,7,0,0,1,369.85,281ZM445.62,39.53,395.77,227c14-14.42,30.84-22,49.62-22,23.81,0,37.5-13.68,39.26-18.27Z"/><path class="cls-2" d="M640.28,89.46a90.4,90.4,0,0,0-67.93,30.67V240A90.61,90.61,0,1,0,640.28,89.46Z"/><path class="cls-4" d="M647.94,57.54a50.05,50.05,0,0,0-75.58-43V96.55h0v37.21l.41,1,3.48,4.9,16.07-17.89,12.43-14.69A50.05,50.05,0,0,0,647.94,57.54Z"/><path class="cls-3" d="M649.91,80.58a59.7,59.7,0,0,0,3.5-25.48C651,25.47,625.83,1.63,596.08.83a58.88,58.88,0,0,0-18.56,2.46,6.66,6.66,0,0,0-11.84,4.2V275.31a6.68,6.68,0,1,0,13.36,0V264.14A100.41,100.41,0,0,0,636.43,282c1.08,0,2.17,0,3.26-.05a101.56,101.56,0,0,0,97.88-99.75C738.24,131.15,700,87.28,649.91,80.58Zm-9.81-24.4a46.56,46.56,0,0,1-1.35,15.35c-3.53,9.2-15,17.49-27.08,26.27-11,8-23.43,17-32.63,28.81V16.82a45.25,45.25,0,0,1,16.68-2.64C618.75,14.8,638.24,33.25,640.1,56.18Zm-.83,212.41A87.37,87.37,0,0,1,579,247.27V161.83c1.35-24.86,21.23-39.28,40.47-53.21,7.57-5.49,14.91-10.81,20.81-16.64a10.47,10.47,0,0,0,4.38,1.45c45.19,4.21,80.11,43.13,79.52,88.59C723.61,228.3,685.5,267.13,639.27,268.59Z"/><rect class="cls-2" x="805" y="78.5" width="34.31" height="196.81"/><circle class="cls-1" cx="831.72" cy="42.99" r="26.72"/><path class="cls-3" d="M822.93.18a42.76,42.76,0,0,0-25.14,77.39,7.44,7.44,0,0,0-.09,1V275.31a7.3,7.3,0,1,0,14.6,0V84.41A42.79,42.79,0,1,0,822.93.18Zm0,71A28.21,28.21,0,1,1,851.14,43,28.24,28.24,0,0,1,822.93,71.2Z"/><circle class="cls-4" cx="906.24" cy="275.31" r="17.43"/><path class="cls-3" d="M899,305.42a30.11,30.11,0,1,1,30.11-30.11A30.15,30.15,0,0,1,899,305.42Zm0-49.29a19.18,19.18,0,1,0,19.18,19.18A19.21,19.21,0,0,0,899,256.13Z"/></svg>