<svg id="Camada_1" data-name="Camada 1" xmlns="http://www.w3.org/2000/svg" viewBox="0 0 521.89 619.2"><defs><style>.cls-1{fill:#ffcc71;}.cls-2{fill:#4aa569;}.cls-3{fill:#1c1515;}.cls-4{fill:#d31a41;}</style></defs><polygon class="cls-1" points="132.47 264.82 7.3 130.12 7.3 74.43 132.47 209.14 132.47 264.82"/><polygon class="cls-2" points="132.47 209.14 7.3 74.43 7.3 18.75 132.47 153.46 132.47 209.14"/><path class="cls-3" d="M132.47,0a7.3,7.3,0,0,0-7.3,7.3V134.87L14.6,15.88V7.3A7.3,7.3,0,0,0,0,7.3v269a7.3,7.3,0,1,0,14.6,0V148.7l110.57,119v8.58a7.3,7.3,0,1,0,14.6,0V7.3A7.3,7.3,0,0,0,132.47,0Zm-7.3,156.33v34.22L14.6,71.56V37.34ZM14.6,127.25V93L125.17,212v34.23Z"/><rect class="cls-2" x="193.27" y="7.3" width="62.58" height="268.97"/><rect class="cls-4" x="255.85" y="7.3" width="62.58" height="268.97"/><path class="cls-3" d="M318.44,14.6H193.27a7.3,7.3,0,0,1,0-14.6H318.44a7.3,7.3,0,1,1,0,14.6Z"/><path class="cls-3" d="M318.44,283.58H193.27a7.31,7.31,0,0,1,0-14.61H318.44a7.31,7.31,0,0,1,0,14.61Z"/><path class="cls-3" d="M318.44,213.84H193.27a7.31,7.31,0,0,1,0-14.61H318.44a7.31,7.31,0,0,1,0,14.61Z"/><path class="cls-3" d="M318.44,81.85H193.27a7.31,7.31,0,0,1,0-14.61H318.44a7.31,7.31,0,0,1,0,14.61Z"/><path class="cls-3" d="M318.44,147.84H193.27a7.3,7.3,0,1,1,0-14.6H318.44a7.3,7.3,0,1,1,0,14.6Z"/><path class="cls-1" d="M509.85,269.53l3.79,1.35-5.44-24L499.38,212l-6-21-3,5.54L474.59,208l-25.7,5.59-8.54,6.34c-33,2.72-53.92,32.05-65.39,63.24l140.69-.1C513.87,278.46,512.08,274,509.85,269.53Z"/><path class="cls-2" d="M493.58,191.69,448.11,20.24a2.56,2.56,0,0,0-5,0L375.22,275.69c12-32.8,34.32-63.59,70.17-63.59a55.61,55.61,0,0,1,11.31,1.17C471.61,210.09,485.82,203.94,493.58,191.69Z"/><path class="cls-3" d="M369.85,280.85l-.25-.28a7,7,0,0,1-1.37-7h0s0,0,0,0L436.09,18.36a9.87,9.87,0,0,1,19.08,0l43.95,165.75c0,.12.07.24.09.36l23.64,89.12a7.6,7.6,0,0,1-4.87,9.13h0a7.44,7.44,0,0,1-9.24-4.44,7.36,7.36,0,0,1-.43-1.8,11.78,11.78,0,0,0-.28-1.78l-18.79-70.89c-9.56,8.54-25.17,15.6-43.85,15.6-36.23,0-55.12,36.49-63.2,58.48h0a7,7,0,0,1-4.9,4.94l-.41.11-.18.05A7,7,0,0,1,369.85,280.85ZM445.62,39.34,395.77,226.83c14-14.43,30.84-22,49.62-22,23.81,0,37.5-13.68,39.26-18.27Z"/><path class="cls-2" d="M74.6,406.42A90.4,90.4,0,0,0,6.67,437.09V557A90.61,90.61,0,1,0,74.6,406.42Z"/><path class="cls-4" d="M82.26,374.49A50.05,50.05,0,0,0,6.68,331.44v82.07h0v37.22l.41,1,3.48,4.91,16.07-17.89,12.43-14.69A50.05,50.05,0,0,0,82.26,374.49Z"/><path class="cls-3" d="M84.23,397.53a59.63,59.63,0,0,0,3.5-25.47c-2.39-29.63-27.58-53.47-57.33-54.28a59.47,59.47,0,0,0-18.56,2.46A6.66,6.66,0,0,0,0,324.44V592.27a6.68,6.68,0,0,0,13.36,0V581.1A100.49,100.49,0,0,0,70.75,599c1.08,0,2.17,0,3.26-.05a101.58,101.58,0,0,0,97.88-99.75C172.56,448.11,134.36,404.24,84.23,397.53Zm-9.82-24.39a46,46,0,0,1-1.35,15.34c-3.52,9.2-15,17.5-27.07,26.28-11,7.95-23.44,17-32.63,28.81V333.78A45.25,45.25,0,0,1,30,331.14C53.07,331.76,72.56,350.21,74.41,373.14Zm-.82,212.4a87.27,87.27,0,0,1-60.23-21.32V478.79c1.35-24.87,21.23-39.28,40.47-53.21,7.57-5.49,14.91-10.82,20.81-16.64A10.47,10.47,0,0,0,79,410.39c45.18,4.21,80.11,43.12,79.52,88.58C157.93,545.25,119.82,584.09,73.59,585.54Z"/><rect class="cls-2" x="239.32" y="395.46" width="34.31" height="196.81"/><circle class="cls-1" cx="266.04" cy="359.95" r="26.72"/><path class="cls-3" d="M257.25,317.14a42.76,42.76,0,0,0-25.14,77.38,7.77,7.77,0,0,0-.1,1V592.27a7.31,7.31,0,0,0,14.61,0V401.37a42.79,42.79,0,1,0,10.63-84.23Zm0,71A28.21,28.21,0,1,1,285.46,360,28.25,28.25,0,0,1,257.25,388.16Z"/><circle class="cls-4" cx="340.56" cy="592.27" r="17.43"/><path class="cls-3" d="M333.35,622.38a30.11,30.11,0,1,1,30.11-30.11A30.15,30.15,0,0,1,333.35,622.38Zm0-49.29a19.18,19.18,0,1,0,19.18,19.18A19.2,19.2,0,0,0,333.35,573.09Z"/></svg>