<svg width="213" height="70" viewBox="0 0 213 70" fill="none" xmlns="http://www.w3.org/2000/svg">
<path d="M30.3324 60.7474L1.67188 29.9039V17.1547L30.3324 47.9982V60.7474Z" fill="#FFCC71"/>
<path d="M30.3324 47.9983L1.67188 17.1548V4.40559L30.3324 35.2491V47.9983Z" fill="#4AA569"/>
<path d="M30.3324 0.111298C29.4105 0.111298 28.6605 0.861248 28.6605 1.78316V30.993L3.34373 3.74641V1.78316C3.34373 0.861248 2.59378 0.111298 1.67186 0.111298C0.749951 0.111298 0 0.861248 0 1.78316V63.3699C0 64.2918 0.749951 65.0417 1.67186 65.0417C2.59378 65.0417 3.34373 64.2918 3.34373 63.3699V34.16L28.6605 61.4066V63.3699C28.6605 64.2918 29.4105 65.0417 30.3324 65.0417C31.2543 65.0417 32.0043 64.2918 32.0043 63.3699V1.78316C32.0043 0.861248 31.2543 0.111298 30.3324 0.111298ZM28.6605 35.9083V43.747L3.34373 16.4956V8.66169L28.6605 35.9083ZM3.34373 29.2495V21.4109L28.6605 48.6575V56.4961L3.34373 29.2495Z" fill="#1C1515"/>
<path d="M58.582 1.78316H44.2517V63.3699H58.582V1.78316Z" fill="#4AA569"/>
<path d="M72.9123 1.78316H58.582V63.3699H72.9123V1.78316Z" fill="#D31A41"/>
<path d="M72.9122 3.45503H44.2517C43.3298 3.45503 42.5798 2.70508 42.5798 1.78316C42.5798 0.861248 43.3298 0.111298 44.2517 0.111298H72.9122C73.8341 0.111298 74.5841 0.861248 74.5841 1.78316C74.5841 2.70508 73.8389 3.45503 72.9122 3.45503Z" fill="#1C1515"/>
<path d="M72.9122 65.0417H44.2517C43.3298 65.0417 42.5798 64.2917 42.5798 63.3698C42.5798 62.4479 43.3298 61.698 44.2517 61.698H72.9122C73.8341 61.698 74.5841 62.4479 74.5841 63.3698C74.5841 64.2917 73.8389 65.0417 72.9122 65.0417Z" fill="#1C1515"/>
<path d="M72.9122 49.073H44.2517C43.3298 49.073 42.5798 48.3231 42.5798 47.4012C42.5798 46.4793 43.3298 45.7293 44.2517 45.7293H72.9122C73.8341 45.7293 74.5841 46.4793 74.5841 47.4012C74.5841 48.3231 73.8389 49.073 72.9122 49.073Z" fill="#1C1515"/>
<path d="M72.9122 18.8505H44.2517C43.3298 18.8505 42.5798 18.1005 42.5798 17.1786C42.5798 16.2567 43.3298 15.5068 44.2517 15.5068H72.9122C73.8341 15.5068 74.5841 16.2567 74.5841 17.1786C74.5841 18.1005 73.8389 18.8505 72.9122 18.8505Z" fill="#1C1515"/>
<path d="M72.9122 33.9642H44.2517C43.3298 33.9642 42.5798 33.2142 42.5798 32.2923C42.5798 31.3704 43.3298 30.6204 44.2517 30.6204H72.9122C73.8341 30.6204 74.5841 31.3704 74.5841 32.2923C74.5841 33.2142 73.8389 33.9642 72.9122 33.9642Z" fill="#1C1515"/>
<path d="M116.744 61.827L117.613 62.1374L116.366 56.6298L114.346 48.6622L112.98 43.8616L112.306 45.1322L108.671 47.7403L102.786 49.0205L100.832 50.4726C93.2708 51.0984 88.4845 57.8097 85.8621 64.9557L118.076 64.9318C117.661 63.8714 117.255 62.8587 116.744 61.827Z" fill="#FFCC71"/>
<path d="M113.018 44.0049L102.605 4.74474C102.452 4.16197 101.625 4.16197 101.468 4.74474L85.9146 63.2361C88.6612 55.727 93.7723 48.6766 101.979 48.6766C102.877 48.6766 103.741 48.7721 104.568 48.9441C107.988 48.218 111.241 46.8088 113.018 44.0049Z" fill="#4AA569"/>
<path d="M84.6868 64.4207L84.6295 64.3586C84.2378 63.9192 84.1184 63.303 84.3143 62.7489C84.3143 62.7441 84.319 62.7393 84.319 62.7345L99.853 4.31483C100.121 3.31171 100.999 2.63341 102.036 2.63341C103.073 2.63341 103.951 3.30693 104.219 4.31483L114.284 42.2661C114.293 42.2948 114.298 42.3187 114.308 42.3474L119.72 62.7537C119.954 63.6373 119.466 64.5497 118.607 64.8459C117.742 65.1229 116.815 64.6787 116.49 63.8284C116.438 63.6899 116.405 63.5514 116.39 63.4176C116.376 63.2791 116.362 63.1453 116.328 63.0116L112.024 46.7802C109.836 48.7339 106.263 50.3484 101.983 50.3484C93.691 50.3484 89.3633 58.703 87.5147 63.7377C87.3666 64.287 86.9415 64.7169 86.3921 64.8698L86.2966 64.8936L86.2536 64.9032C85.6804 65.0465 85.0785 64.8602 84.6868 64.4207ZM102.036 9.12024L90.6196 52.0489C93.8296 48.7482 97.6796 47.0047 101.979 47.0047C107.434 47.0047 110.567 43.8711 110.969 42.8203L102.036 9.12024Z" fill="#1C1515"/>
<path d="M146.608 20.551C140.413 20.551 134.857 23.269 131.055 27.5729V55.0296C134.857 59.3335 140.413 62.0515 146.608 62.0515C158.067 62.0515 167.358 52.7607 167.358 41.3013C167.358 29.8418 158.067 20.551 146.608 20.551Z" fill="#4AA569"/>
<path d="M148.361 13.2426C148.361 6.91339 143.231 1.78316 136.902 1.78316C134.766 1.78316 132.77 2.3707 131.055 3.38815V22.1799V30.7016L131.15 30.9357L131.948 32.0582L135.631 27.9598L138.478 24.5969C144.057 23.8279 148.361 19.0416 148.361 13.2426Z" fill="#D31A41"/>
<path d="M148.81 18.5209C149.498 16.6723 149.775 14.6756 149.613 12.6885C149.064 5.9055 143.298 0.445669 136.486 0.259375C135.025 0.221161 133.606 0.412231 132.235 0.823032C131.953 0.479106 131.533 0.254598 131.055 0.254598C130.21 0.254598 129.527 0.937674 129.527 1.78316V1.92169V2.89614V57.3703V58.039V63.1071C129.527 63.9526 130.21 64.6357 131.055 64.6357C131.901 64.6357 132.584 63.9526 132.584 63.1071V60.5516C136.429 63.2122 140.976 64.6357 145.725 64.6357C145.973 64.6357 146.221 64.6309 146.47 64.6261C152.417 64.4399 158.01 61.9703 162.228 57.676C166.441 53.3817 168.806 47.7403 168.882 41.7885C169.04 30.0998 160.289 20.0542 148.81 18.5209ZM146.565 12.9321C146.661 14.1167 146.551 15.3062 146.255 16.4478C145.448 18.5543 142.83 20.4555 140.055 22.4617C137.542 24.2817 134.69 26.35 132.584 29.0584V3.91837C133.797 3.48368 135.077 3.27828 136.4 3.3165C141.679 3.4598 146.14 7.68245 146.565 12.9321ZM146.374 61.569C141.277 61.7267 136.41 59.9975 132.584 56.6872V37.1216C132.894 31.4277 137.446 28.127 141.851 24.9361C143.585 23.6798 145.266 22.4617 146.618 21.1242C146.919 21.3058 147.263 21.4204 147.621 21.4586C157.967 22.4235 165.964 31.3322 165.825 41.7407C165.687 52.3403 156.964 61.2347 146.374 61.569Z" fill="#1C1515"/>
<path d="M192.178 18.0432H184.321V63.1071H192.178V18.0432Z" fill="#4AA569"/>
<path d="M190.44 16.0322C193.819 16.0322 196.559 13.2926 196.559 9.9132C196.559 6.53375 193.819 3.79417 190.44 3.79417C187.06 3.79417 184.321 6.53375 184.321 9.9132C184.321 13.2926 187.06 16.0322 190.44 16.0322Z" fill="#FFCC71"/>
<path d="M188.429 0.111298C183.026 0.111298 178.627 4.51069 178.627 9.9132C178.627 13.1662 180.227 16.0466 182.673 17.8283C182.663 17.8999 182.649 17.9716 182.649 18.048V63.1071C182.649 64.0291 183.399 64.779 184.321 64.779C185.243 64.779 185.992 64.0291 185.992 63.1071V19.3951C186.771 19.5957 187.583 19.7151 188.429 19.7151C193.831 19.7151 198.231 15.3157 198.231 9.9132C198.231 4.51069 193.836 0.111298 188.429 0.111298ZM188.429 16.3714C184.865 16.3714 181.97 13.4719 181.97 9.9132C181.97 6.35452 184.87 3.45503 188.429 3.45503C191.987 3.45503 194.887 6.34974 194.887 9.9132C194.887 13.4767 191.992 16.3714 188.429 16.3714Z" fill="#1C1515"/>
<path d="M207.507 67.1005C209.713 67.1005 211.5 65.3126 211.5 63.1071C211.5 60.9017 209.713 59.1138 207.507 59.1138C205.302 59.1138 203.514 60.9017 203.514 63.1071C203.514 65.3126 205.302 67.1005 207.507 67.1005Z" fill="#D31A41"/>
<path d="M205.854 70C202.052 70 198.961 66.9095 198.961 63.1072C198.961 59.3049 202.052 56.2143 205.854 56.2143C209.657 56.2143 212.747 59.3049 212.747 63.1072C212.747 66.9095 209.657 70 205.854 70ZM205.854 58.7173C203.432 58.7173 201.464 60.6853 201.464 63.1072C201.464 65.529 203.432 67.497 205.854 67.497C208.276 67.497 210.244 65.529 210.244 63.1072C210.244 60.6853 208.276 58.7173 205.854 58.7173Z" fill="#1C1515"/>
</svg>
