<svg xmlns="http://www.w3.org/2000/svg" viewBox="0 0 276.34 313.73"><defs><style>.cls-1{fill:#1c1515;}</style></defs><g id="Camada_3" data-name="Camada 3"><path class="cls-1" d="M274.33,268.94a7.14,7.14,0,0,0-9.9,0L263.34,270l-13.1-17.92c-4.72-6.47-9.68-12.77-14.56-19.12-2.63-3.43-5.38-6.8-7.91-10.31-1.85-2.55-3.44-5.32-5.13-8l-10-15.56a46.36,46.36,0,0,0-5.06-7.12L190,173.44l9.4-10.26,9.26-26.52,5.76-27.34-3.64-28.47L199.22,55.12,182.33,32,158.15,18.55,134.57,4l-29.1-4L78.54,6.83,52.41,16.05,29.68,33,13.56,55.77,1.75,81.41l-.51,27.44L0,136.93l12,26.31,16.63,23L51.84,203l26.37,9.9,27.81,3,26.62-4.37,15.45-4.18,14.19,17.54c5.36,6.63,11.19,12.85,16.86,19.21,3,3.34,5.92,6.75,9,10.05l.7,1,4.44,6.3,11.31,16c1.77,2.51,3.4,5.24,5.67,7.33l17.27,15.89-.08,0a7,7,0,0,0-3.21,4.18,7,7,0,0,0,4.88,8.61,8.16,8.16,0,0,0,5.4-.71l4.51-2c.91-.4,1.88-.76,2.82-1.16a6.07,6.07,0,0,0,3.33-1.86,6.81,6.81,0,0,0,.53-.65l.55-.56,3.06-3,19.62-19.41,5.42-5.36C276.93,276.26,277.1,271.49,274.33,268.94ZM130.2,198.73l-24.53,4-24.41-2.66-23.19-8.71L38,176.89,23.37,156.64,13.19,134.36l1.1-25,.46-25L24.91,62.33,39.15,42.24,58.63,27.7l23.42-8.28,24.17-6.14,23.84,3.25,21.35,13.2L173.48,42l14.39,19.72,10.19,22.71,3.12,24.35L196,133.15,188,156.33l-10.1,11a6.06,6.06,0,0,0-2.12,1.46,7.69,7.69,0,0,0-1.54,2.53l-3,3.28-17.33,17.66,0,0-.66-.82-.58-.71a7,7,0,0,0-4.94-2.05,7,7,0,0,0-7,7c0,.06,0,.11,0,.17Zm89.52,76.07c-.15-.23-.31-.45-.47-.67C219.87,274.76,220.43,275.8,219.72,274.8Zm20.89,17.72-.67.63-17.73-16.3c-1-.92-2-1.91-3-2.77l-.78-1.1L207.8,257.9c-2.71-3.84-5.39-7.71-8.13-11.53a109.57,109.57,0,0,0-7.49-8.62l-13.11-14.68c-1.73-1.94-3.5-3.85-5.14-5.87l-11.85-14.65,18.43-18.78,15.28,16.16c.77.82,1.53,1.65,2.31,2.46l.91,1.42,9.24,14.38c2.4,3.74,4.72,7.55,7.21,11.23,1.7,2.52,3.71,4.86,5.56,7.27,5.21,6.79,10.57,13.49,15.62,20.4q8.34,11.42,16.69,22.84l-2.86,2.83Q245.54,287.64,240.61,292.52Z"/><path class="cls-1" d="M147,116.89l-11.55-7.56-7.29-4.76-1.33-.87-.08-.09-4-4.42c-1.19-9.13-2.51-18.24-3.84-27.36q-.41-2.76-.8-5.52a7,7,0,0,0-3.22-4.18,7.15,7.15,0,0,0-5.39-.71c-.32.11-.64.23-1,.37a6.49,6.49,0,0,0-5.21,3.35L91,88.29c-.4.75-.8,1.5-1.19,2.25L72.67,103.17l-3.61,2.65L56.87,109l-11.13,2.87a7.07,7.07,0,0,0-4.89,8.61,7.68,7.68,0,0,0,1.48,2.64A7.48,7.48,0,0,0,46.8,127L76,137.21l1.23.43q7.06,12.35,14.14,24.7l2.19,3.82a7.22,7.22,0,0,0,6.35,3.47,7,7,0,0,0,8.19-3.07L121,143.36c.29-.52.58-1,.86-1.56l21.73-11.11L147,129a7,7,0,0,0,3.46-6A7.17,7.17,0,0,0,147,116.89ZM70.15,105.54c-.24,0-.48.12-.72.18A6.86,6.86,0,0,1,70.15,105.54Zm-1.21.37c-.6.42-.57.25,0,0Zm44.33,24.59c-1.88,1.14-2.67,2.78-3.66,4.56l-7.56,13.59c-.39.71-.78,1.42-1.18,2.12L90.08,131.92c-.67-1.17-1.3-2.36-2-3.5-1.54-2.5-4.06-3.2-6.6-4.09l-11.91-4.16c1.44-.36,2.88-.71,4.29-1.13,2.15-.64,4-2.37,5.72-3.67l17.54-12.9,1.69-1.24a9.56,9.56,0,0,0,3-3.36l4.07-7.66,1.33-2.52.57,3.89c.11.78.23,1.55.34,2.33.34,2.72.69,5.44,1,8.16a14.74,14.74,0,0,0,.29,2.1,8.33,8.33,0,0,0,1.94,3.24c.44.52.91,1,1.37,1.54l3.94,4.4c1.56,1.74,3.81,2.92,5.75,4.19l7.11,4.65L116.32,129C115.31,129.46,114.24,129.92,113.27,130.5Z"/></g></svg>