<svg id="Camada_1" data-name="Camada 1" xmlns="http://www.w3.org/2000/svg" viewBox="0 0 300 300"><defs><style>.cls-1{fill:#4aa569;}.cls-2{fill:#ffcc71;}</style></defs><path class="cls-1" d="M33.38,300s.43-77.84,66-103.12H200.62c65.57,25.28,66,103.12,66,103.12"/><path class="cls-2" d="M226.37,150c0,5.73-2.13,11.31-3.35,16.67-1.26,5.53-5.1,9.88-7.51,14.88s-2,11.94-5.51,16.3-9.82,6.08-14.2,9.58-7.35,9.44-12.42,11.88-11,3.18-16.55,4.44c-5.35,1.22-11.1-1-16.83-1s-11.07.46-16.43-.76c-5.53-1.26-11.84-.48-16.83-2.89s-7.64-8.83-12-12.31S96.35,200,92.85,195.57s-5.66-9.07-8.11-14.14-7.41-9-8.67-14.56c-1.22-5.35-3.3-11.14-3.3-16.87s3.41-11.21,4.63-16.57c1.26-5.54,1.78-11.39,4.18-16.38s4.8-10.65,8.28-15a79.91,79.91,0,0,1,12.07-12.32c4.36-3.48,10.9-3.93,16-6.38s10.41-2.85,15.94-4.11C139.2,78,144.27,75,150,75s11.77-1.22,17.13,0c5.53,1.26,10.31,5.28,15.31,7.69s10.71,4.3,15.07,7.78,7.21,8.76,10.71,13.14,8.69,8,11.14,13a74.9,74.9,0,0,1,7,33.4Z"/></svg>