<?xml version="1.0"?>
<svg width="300" height="300" xmlns="http://www.w3.org/2000/svg" xmlns:svg="http://www.w3.org/2000/svg" xmlns:se="http://svg-edit.googlecode.com" data-name="Camada 1">
 <defs>
  <style>.cls-1{fill:#4aa569;}.cls-2{fill:#d31a41;}</style>
 </defs>
 <g class="layer">
  <title>Layer 1</title>
  <g id="svg_3">
   <path class="cls-1" d="m1.379996,298.983881s0.54799,-102.86009 84.110104,-136.265834l129.019802,0c83.562114,33.405744 84.110104,136.265834 84.110104,136.265834" fill="black" id="svg_1"/>
   <path class="cls-2" d="m247.867059,100.769422c0,7.571792 -2.714462,14.94537 -4.269225,22.028234c-1.605738,7.307506 -6.499417,13.055726 -9.57071,19.662874s-2.548791,15.777871 -7.021919,21.539305s-12.514564,8.034293 -18.096416,12.659297s-9.366807,12.474297 -15.827992,15.698585s-14.018351,4.202147 -21.091246,5.867148c-6.818016,1.612144 -14.14579,-1.32143 -21.448077,-1.32143s-14.107558,0.607858 -20.938318,-1.004287c-7.047407,-1.665001 -15.088843,-0.634286 -21.448077,-3.818932s-9.736382,-11.668225 -15.292746,-16.2668s-10.692178,-8.972508 -15.152563,-14.826442s-7.213079,-11.985368 -10.335348,-18.685016s-9.443271,-11.892868 -11.049009,-19.240017c-1.554763,-7.069649 -4.205505,-14.720727 -4.205505,-22.29252s4.345689,-14.813227 5.900451,-21.896091c1.605738,-7.320721 2.268424,-15.051085 5.326973,-21.645019s6.117098,-14.073227 10.551995,-19.821446a101.836946,105.59545 0 0 1 15.381954,-16.280014c5.556364,-4.598575 13.890911,-5.193219 20.390328,-8.430722s13.266457,-3.766075 20.313865,-5.431076c6.792528,-1.638573 13.253713,-5.602862 20.556,-5.602862s14.999635,-1.612144 21.830395,0c7.047407,1.665001 13.139018,6.977149 19.510995,10.161795s13.648776,5.682148 19.20514,10.280723s9.188392,11.575724 13.648776,17.363587s11.074497,10.571438 14.196766,17.178586a95.452224,98.975087 0 0 1 8.920769,44.135753l0.012744,-0.013214z" fill="black" id="svg_2"/>
  </g>
 </g>
</svg>